<?xml version="1.0" encoding="utf-8"?>
<!-- Generator: Adobe Illustrator 27.5.0, SVG Export Plug-In . SVG Version: 6.00 Build 0)  -->
<svg version="1.1" id="Layer_1" xmlns="http://www.w3.org/2000/svg" xmlns:xlink="http://www.w3.org/1999/xlink" x="0px" y="0px"
	 viewBox="0 0 700 700" style="enable-background:new 0 0 700 700;" xml:space="preserve">
<style type="text/css">
	.st0{fill:#E2E2E2;}
	.st1{fill:#58727F;}
</style>
<path class="st0" d="M320.8,145.5h54.9v54.9h-54.9V145.5z M273.2,310.3h47.6v54.9h-47.6L273.2,310.3z M375.8,200.4h54.9v54.9h-54.9
	V200.4z M485.6,200.4h54.9v54.9h-54.9V200.4z M430.7,137.6v7.9h18.8L430.7,137.6z M430.7,314.2l8.3-3.9h-8.3V314.2z"/>
<path class="st0" d="M485.6,255.3h-54.9l-1.1,52.7l28-13.3l28-13.1V255.3z M420.4,310.3h-44.7l0,22.9l49-22.9L420.4,310.3z
	 M485.6,200.4v-39.7l-36.1-15.2h-18.8v54.9H485.6z M580,200.4l-39.5-16.6v16.6L580,200.4z M430.7,145.5v-7.9l-54.9-23.1v31
	L430.7,145.5z M320.8,255.3h54.9v54.9h-54.9V255.3z M595.5,206.9v30.3l34.1-15.9L595.5,206.9z M540.5,255.3v7.5l16-7.5L540.5,255.3z
	 M273.2,200.9h54.9v54.9h-54.9L273.2,200.9z M273.2,90.5h47.6v54.9h-47.6L273.2,90.5z"/>
<path class="st1" d="M236.2,45.6h37v622h-37L236.2,45.6z"/>
<path class="st1" d="M243.6,412.3v-364l409.9,172.5L243.6,412.3z M265.8,75v309.6l348.6-162.9L265.8,75z"/>
</svg>
