<?xml version="1.0" encoding="utf-8"?>
<!-- Generator: Adobe Illustrator 27.6.1, SVG Export Plug-In . SVG Version: 6.00 Build 0)  -->
<svg version="1.1"
	 id="svg40" xmlns:inkscape="http://www.inkscape.org/namespaces/inkscape" xmlns:svg="http://www.w3.org/2000/svg" xmlns:sodipodi="http://sodipodi.sourceforge.net/DTD/sodipodi-0.dtd" inkscape:version="1.2.2 (732a01da63, 2022-12-09)"
	 xmlns="http://www.w3.org/2000/svg" xmlns:xlink="http://www.w3.org/1999/xlink" x="0px" y="0px" viewBox="0 0 700 700"
	 style="enable-background:new 0 0 700 700;" xml:space="preserve">
<style type="text/css">
	.st0{fill-rule:evenodd;clip-rule:evenodd;fill:#58727F;}
	.st1{fill:#FFFFFF;fill-opacity:0.6777;stroke:#000000;stroke-width:27.6134;stroke-miterlimit:3;stroke-opacity:0.2;}
</style>
<sodipodi:namedview  bordercolor="#eeeeee" borderopacity="1" id="namedview42" inkscape:current-layer="svg40" inkscape:cx="405.91716" inkscape:cy="467.21894" inkscape:deskcolor="#505050" inkscape:document-units="pt" inkscape:pagecheckerboard="0" inkscape:pageopacity="0" inkscape:showpageshadow="0" inkscape:window-height="1009" inkscape:window-maximized="1" inkscape:window-width="1920" inkscape:window-x="-8" inkscape:window-y="-8" inkscape:zoom="0.90535714" pagecolor="#505050" showgrid="false">
	</sodipodi:namedview>
<path id="path36" class="st0" d="M350,0c194.8,0,350,155.2,350,350c0,194.8-155.2,350-350,350C155.1,700,0,544.8,0,350
	C0,155.2,155.1,0,350,0L350,0z M350,79.2c148.6,0,270.8,122.2,270.8,270.8c0,148.6-122.2,270.8-270.8,270.8
	C201.4,620.8,79.2,498.6,79.2,350C79.2,201.4,201.4,79.2,350,79.2L350,79.2z"/>
<path id="path38" class="st1" d="M324.5,618.8c-74.9-7.9-142.1-45.2-187.8-104.4c-75.5-97.7-75.5-231,0-328.7
	c48.5-62.8,119.4-100.1,200.4-105.4c28.9-1.9,70.2,4.1,100.2,14.6c42.9,15,86.2,44.2,115.5,77.9c80.7,93.1,89.3,224.9,21.2,326.5
	c-39.1,58.3-98.7,99.2-166.7,114.3C378.5,619.9,351.2,621.6,324.5,618.8L324.5,618.8z"/>
</svg>
