<?xml version="1.0" encoding="UTF-8"?>
<svg id="Layer_2" data-name="Layer 2" xmlns="http://www.w3.org/2000/svg" viewBox="0 0 139.86 139.86">
  <defs>
    <style>
      .cls-1 {
        fill: #59836c;
        fill-rule: evenodd;
      }
    </style>
  </defs>
  <g id="Layer_1-2" data-name="Layer 1">
    <path class="cls-1" d="M32.63,74.59c-7.72,0-13.99,6.27-13.99,13.99s6.27,13.99,13.99,13.99,13.99-6.27,13.99-13.99-6.27-13.99-13.99-13.99Zm0,9.32c2.57,0,4.66,2.09,4.66,4.66s-2.09,4.66-4.66,4.66-4.66-2.09-4.66-4.66,2.09-4.66,4.66-4.66ZM107.23,18.65c-7.72,0-13.99,6.27-13.99,13.99s6.27,13.99,13.99,13.99,13.99-6.27,13.99-13.99-6.27-13.99-13.99-13.99Zm0,9.32c2.57,0,4.66,2.09,4.66,4.66s-2.09,4.66-4.66,4.66-4.66-2.09-4.66-4.66,2.09-4.66,4.66-4.66Z"/>
    <path class="cls-1" d="M107.23,83.91h9.33c2.57,0,4.65,2.08,4.65,4.65s-2.09,4.67-4.66,4.67h-27.97c-7.72,0-13.99,6.26-13.99,13.99s6.26,13.99,13.98,13.99h37.15c2.66,0,4.82,2.16,4.82,4.82,0,1.2-.48,2.35-1.31,3.19-.84,.84-1.99,1.31-3.18,1.31H44.18c3.26-3.47,7.02-7.87,10.43-12.84,5.89-8.6,10.66-18.89,10.66-29.12,0-18.01-14.62-32.63-32.63-32.63S0,70.57,0,88.58c0,10.23,4.77,20.52,10.66,29.12,8.44,12.3,18.99,21.08,18.99,21.08,.84,.7,1.9,1.08,2.99,1.08H126.04c3.67,0,7.18-1.45,9.77-4.05,2.59-2.59,4.05-6.11,4.05-9.77,0-7.82-6.33-14.15-14.14-14.15h-37.15c-2.57,0-4.65-2.08-4.65-4.65s2.09-4.67,4.66-4.67h27.97c7.72,0,13.99-6.26,13.99-13.99,0-7.03-5.17-12.83-11.91-13.83,3.3-3.5,7.11-7.95,10.57-12.99,5.89-8.6,10.66-18.89,10.66-29.12,0-18.02-14.62-32.64-32.63-32.64s-32.63,14.62-32.63,32.63c0,10.23,4.77,20.52,10.66,29.12,8.44,12.3,18.99,21.08,18.99,21.08,.86,.72,1.93,1.08,2.98,1.08Zm-74.59-18.65c12.87,0,23.31,10.44,23.31,23.31,0,8.41-4.18,16.77-9.03,23.84-5.01,7.31-10.84,13.26-14.28,16.51-3.44-3.25-9.27-9.2-14.28-16.51-4.85-7.07-9.03-15.43-9.03-23.84,0-12.87,10.44-23.31,23.31-23.31ZM107.23,9.32c12.87,0,23.31,10.44,23.31,23.31,0,8.41-4.18,16.77-9.03,23.84-5.01,7.31-10.84,13.26-14.28,16.51-3.44-3.25-9.27-9.2-14.28-16.51-4.85-7.07-9.03-15.43-9.03-23.84,0-12.87,10.44-23.31,23.31-23.31Z"/>
  </g>
</svg>