<svg xmlns="http://www.w3.org/2000/svg" id="Layer_2" data-name="Layer 2" viewBox="0 0 72 60"><defs><style>.cls-1{fill:#e9ffc5}</style></defs><g id="Layer_1-2" data-name="Layer 1"><path d="M61.27 23.32a5.512 5.512 0 0 0-5.2-3.67h-4.08c-1.1 0-2 .9-2 2s.9 2 2 2h4.08c.64 0 1.22.41 1.43 1.01l10.4 29.32a1.519 1.519 0 0 1-1.43 2.03H5.52a1.52 1.52 0 0 1-1.43-2.03l10.4-29.32c.22-.61.79-1.01 1.43-1.01H20c1.1 0 2-.9 2-2s-.9-2-2-2h-4.08c-2.34 0-4.42 1.47-5.2 3.67L.32 52.64a5.52 5.52 0 0 0 3.36 7.05c.59.21 1.22.32 1.84.32h60.96c3.05 0 5.52-2.47 5.52-5.52 0-.63-.11-1.25-.32-1.84l-10.4-29.32ZM36 6.89c-3.31 0-6 2.69-6 6s2.69 6 6 6 6-2.69 6-6-2.69-6-6-6Zm0 8c-1.1 0-2-.9-2-2s.9-2 2-2 2 .9 2 2-.9 2-2 2Z" class="cls-1"/><path d="M36 0c-7.23 0-13.09 5.85-13.09 13.08 0 2.63.79 5.2 2.27 7.38l6.75 9.45A5.004 5.004 0 0 0 36 32c1.61 0 3.13-.78 4.07-2.09l6.67-9.33s.05-.08.06-.09c4.09-5.96 2.57-14.1-3.39-18.19C41.23.8 38.64 0 36 0Zm7.48 18.25-6.67 9.33c-.32.45-.94.55-1.39.23a.84.84 0 0 1-.23-.23l-6.61-9.24-.08-.12c-2.84-4.14-1.78-9.8 2.36-12.64s9.8-1.78 12.64 2.36a9.082 9.082 0 0 1-.02 10.3Z" class="cls-1"/><path d="M54 48H38c-1.1 0-2 .9-2 2s.9 2 2 2h16c3.87 0 7-3.13 7-7s-3.13-7-7-7H21c-1.66 0-3-1.34-3-3s1.34-3 3-3h5c1.1 0 2-.9 2-2s-.9-2-2-2h-5c-3.87 0-7 3.13-7 7s3.13 7 7 7h33c1.66 0 3 1.34 3 3s-1.34 3-3 3Z" class="cls-1"/></g></svg>