<svg xmlns="http://www.w3.org/2000/svg" id="Layer_2" data-name="Layer 2" viewBox="0 0 636.73 139.86"><defs><style>.cls-1,.cls-2{fill:#59836c}.cls-2{fill-rule:evenodd}</style></defs><g id="Layer_1-2" data-name="Layer 1"><path d="M32.63 74.59c-7.72 0-13.99 6.27-13.99 13.99s6.27 13.99 13.99 13.99 13.99-6.27 13.99-13.99-6.27-13.99-13.99-13.99Zm0 9.32c2.57 0 4.66 2.09 4.66 4.66s-2.09 4.66-4.66 4.66-4.66-2.09-4.66-4.66 2.09-4.66 4.66-4.66ZM107.23 18.65c-7.72 0-13.99 6.27-13.99 13.99s6.27 13.99 13.99 13.99 13.99-6.27 13.99-13.99-6.27-13.99-13.99-13.99Zm0 9.32c2.57 0 4.66 2.09 4.66 4.66s-2.09 4.66-4.66 4.66-4.66-2.09-4.66-4.66 2.09-4.66 4.66-4.66Z" class="cls-2"/><path d="M107.23 83.91h9.33c2.57 0 4.65 2.08 4.65 4.65 0 2.58-2.09 4.67-4.66 4.67H88.58c-7.72 0-13.99 6.26-13.99 13.99s6.26 13.99 13.98 13.99h37.15c2.66 0 4.82 2.16 4.82 4.82 0 1.2-.48 2.35-1.31 3.19-.84.84-1.99 1.31-3.18 1.31H44.18c3.26-3.47 7.02-7.87 10.43-12.84 5.89-8.6 10.66-18.89 10.66-29.12 0-18.01-14.62-32.63-32.63-32.63S0 70.57 0 88.58c0 10.23 4.77 20.52 10.66 29.12 8.44 12.3 18.99 21.08 18.99 21.08a4.68 4.68 0 0 0 2.99 1.08h93.4c3.67 0 7.18-1.45 9.77-4.05a13.83 13.83 0 0 0 4.05-9.77c0-7.82-6.33-14.15-14.14-14.15H88.57c-2.57 0-4.65-2.08-4.65-4.65 0-2.58 2.09-4.67 4.66-4.67h27.97c7.72 0 13.99-6.26 13.99-13.99 0-7.03-5.17-12.83-11.91-13.83 3.3-3.5 7.11-7.95 10.57-12.99 5.89-8.6 10.66-18.89 10.66-29.12C139.86 14.62 125.24 0 107.23 0S74.6 14.62 74.6 32.63c0 10.23 4.77 20.52 10.66 29.12 8.44 12.3 18.99 21.08 18.99 21.08.86.72 1.93 1.08 2.98 1.08ZM32.64 65.26c12.87 0 23.31 10.44 23.31 23.31 0 8.41-4.18 16.77-9.03 23.84-5.01 7.31-10.84 13.26-14.28 16.51-3.44-3.25-9.27-9.2-14.28-16.51-4.85-7.07-9.03-15.43-9.03-23.84 0-12.87 10.44-23.31 23.31-23.31Zm74.59-55.94c12.87 0 23.31 10.44 23.31 23.31 0 8.41-4.18 16.77-9.03 23.84-5.01 7.31-10.84 13.26-14.28 16.51-3.44-3.25-9.27-9.2-14.28-16.51-4.85-7.07-9.03-15.43-9.03-23.84 0-12.87 10.44-23.31 23.31-23.31Z" class="cls-2"/><path d="M225.07 85.89c0 1.83-.55 3.79-1.64 5.87-1.1 2.08-2.76 4.06-5.01 5.95-2.24 1.88-5.07 3.4-8.48 4.55s-7.25 1.72-11.52 1.72c-9.08 0-16.17-2.65-21.26-7.94-5.1-5.29-7.64-12.39-7.64-21.29 0-6.03 1.17-11.36 3.5-15.99 2.33-4.63 5.71-8.21 10.12-10.74 4.41-2.53 9.69-3.79 15.83-3.79 3.8 0 7.29.56 10.47 1.67 3.18 1.11 5.87 2.55 8.07 4.31 2.21 1.76 3.89 3.63 5.06 5.62 1.17 1.99 1.75 3.85 1.75 5.57s-.66 3.25-1.96 4.47c-1.31 1.22-2.9 1.83-4.76 1.83-1.22 0-2.23-.31-3.04-.94-.81-.63-1.71-1.64-2.72-3.04-1.79-2.73-3.67-4.77-5.62-6.14-1.96-1.36-4.44-2.05-7.45-2.05-4.34 0-7.84 1.7-10.5 5.09-2.66 3.39-3.98 8.03-3.98 13.91 0 2.76.34 5.3 1.02 7.62.68 2.31 1.67 4.29 2.96 5.92s2.85 2.87 4.68 3.71 3.84 1.26 6.03 1.26c2.94 0 5.46-.68 7.56-2.05 2.1-1.36 3.96-3.44 5.57-6.24.9-1.65 1.87-2.94 2.91-3.88 1.04-.93 2.31-1.4 3.82-1.4 1.79 0 3.28.68 4.47 2.05s1.78 2.82 1.78 4.36ZM251.45 105.91l1.35-3.28-18.09-45.54c-1.11-2.62-1.67-4.52-1.67-5.71 0-1.26.32-2.42.97-3.5s1.53-1.94 2.66-2.58c1.13-.65 2.31-.97 3.53-.97 2.12 0 3.71.67 4.79 2.02s2.03 3.27 2.85 5.79l12.43 36.17 11.79-33.64c.93-2.73 1.78-4.86 2.53-6.41.75-1.54 1.55-2.58 2.4-3.12.84-.54 2.04-.81 3.58-.81 1.11 0 2.18.3 3.2.89a6.21 6.21 0 0 1 2.37 2.4c.56 1 .83 2.06.83 3.18-.14.68-.38 1.65-.7 2.91-.32 1.26-.72 2.53-1.18 3.82l-19.16 50.17c-1.65 4.41-3.27 7.88-4.84 10.39-1.58 2.51-3.67 4.44-6.27 5.79-2.6 1.35-6.11 2.02-10.52 2.02s-7.54-.47-9.69-1.4c-2.15-.93-3.23-2.64-3.23-5.11 0-1.69.51-2.99 1.53-3.9 1.02-.92 2.54-1.37 4.55-1.37.79 0 1.56.11 2.31.32.93.21 1.74.32 2.42.32 1.69 0 3.01-.25 3.98-.75.97-.5 1.84-1.37 2.61-2.61.77-1.24 1.66-3.06 2.66-5.46ZM350.32 85.89c0 1.83-.55 3.79-1.64 5.87-1.1 2.08-2.76 4.06-5.01 5.95-2.24 1.88-5.07 3.4-8.48 4.55s-7.25 1.72-11.52 1.72c-9.08 0-16.17-2.65-21.26-7.94-5.1-5.29-7.64-12.39-7.64-21.29 0-6.03 1.17-11.36 3.5-15.99 2.33-4.63 5.71-8.21 10.12-10.74 4.41-2.53 9.69-3.79 15.83-3.79 3.8 0 7.29.56 10.47 1.67 3.18 1.11 5.87 2.55 8.07 4.31 2.21 1.76 3.89 3.63 5.06 5.62 1.17 1.99 1.75 3.85 1.75 5.57s-.66 3.25-1.96 4.47c-1.31 1.22-2.9 1.83-4.76 1.83-1.22 0-2.23-.31-3.04-.94-.81-.63-1.71-1.64-2.72-3.04-1.79-2.73-3.67-4.77-5.62-6.14-1.96-1.36-4.44-2.05-7.45-2.05-4.34 0-7.84 1.7-10.5 5.09-2.66 3.39-3.98 8.03-3.98 13.91 0 2.76.34 5.3 1.02 7.62.68 2.31 1.67 4.29 2.96 5.92s2.85 2.87 4.68 3.71 3.84 1.26 6.03 1.26c2.94 0 5.46-.68 7.56-2.05 2.1-1.36 3.96-3.44 5.57-6.24.9-1.65 1.87-2.94 2.91-3.88 1.04-.93 2.31-1.4 3.82-1.4 1.79 0 3.28.68 4.47 2.05s1.78 2.82 1.78 4.36ZM377.72 82.87v12.27c0 2.98-.7 5.21-2.1 6.7-1.4 1.49-3.18 2.23-5.33 2.23s-3.86-.75-5.22-2.26c-1.36-1.51-2.05-3.73-2.05-6.67v-40.9c0-6.6 2.39-9.9 7.16-9.9 2.44 0 4.2.77 5.27 2.31 1.08 1.54 1.67 3.82 1.78 6.84 1.76-3.01 3.56-5.29 5.41-6.84 1.85-1.54 4.31-2.31 7.4-2.31s6.08.77 8.99 2.31 4.36 3.59 4.36 6.14c0 1.79-.62 3.27-1.86 4.44-1.24 1.17-2.58 1.75-4.01 1.75-.54 0-1.84-.33-3.9-1-2.06-.66-3.88-1-5.46-1-2.15 0-3.91.56-5.27 1.7-1.36 1.13-2.42 2.81-3.18 5.03s-1.27 4.87-1.56 7.94c-.29 3.07-.43 6.81-.43 11.22ZM466.43 74.21c0 4.38-.68 8.42-2.05 12.11-1.36 3.7-3.34 6.87-5.92 9.53-2.58 2.66-5.67 4.69-9.26 6.11s-7.63 2.13-12.11 2.13-8.45-.72-12-2.15c-3.55-1.43-6.63-3.49-9.23-6.16-2.6-2.67-4.58-5.83-5.92-9.47-1.35-3.64-2.02-7.67-2.02-12.08s.68-8.52 2.05-12.22c1.36-3.7 3.32-6.85 5.87-9.47 2.55-2.62 5.63-4.64 9.26-6.06 3.62-1.42 7.62-2.13 12-2.13s8.49.72 12.11 2.15c3.62 1.44 6.73 3.48 9.31 6.14 2.58 2.66 4.55 5.81 5.89 9.47s2.02 7.7 2.02 12.11Zm-14.75 0c0-5.99-1.32-10.66-3.96-14-2.64-3.34-6.18-5.01-10.63-5.01-2.87 0-5.4.75-7.59 2.23-2.19 1.49-3.88 3.69-5.06 6.59-1.18 2.91-1.78 6.3-1.78 10.17s.58 7.19 1.75 10.07c1.17 2.87 2.83 5.07 5.01 6.59 2.17 1.53 4.73 2.29 7.67 2.29 4.45 0 7.99-1.68 10.63-5.03 2.64-3.36 3.96-7.99 3.96-13.91ZM516.16 95.79v-1.88c-1.76 2.22-3.61 4.09-5.54 5.6a20.216 20.216 0 0 1-6.35 3.36c-2.3.73-4.92 1.1-7.86 1.1-3.55 0-6.74-.74-9.55-2.21-2.82-1.47-5-3.5-6.54-6.08-1.83-3.12-2.75-7.61-2.75-13.46V53.1c0-2.94.66-5.14 1.99-6.59 1.33-1.45 3.09-2.18 5.27-2.18s4.02.74 5.38 2.21c1.36 1.47 2.05 3.66 2.05 6.57v23.52c0 3.41.29 6.27.86 8.58.57 2.31 1.61 4.13 3.1 5.44 1.49 1.31 3.51 1.96 6.06 1.96s4.81-.74 7-2.21c2.19-1.47 3.79-3.39 4.79-5.76.83-2.08 1.24-6.64 1.24-13.67V53.1c0-2.91.68-5.1 2.04-6.57 1.36-1.47 3.14-2.21 5.33-2.21s3.95.73 5.28 2.18c1.33 1.45 1.99 3.65 1.99 6.59v42.58c0 2.8-.64 4.9-1.91 6.3-1.28 1.4-2.92 2.1-4.93 2.1s-3.67-.73-4.98-2.18c-1.31-1.45-1.96-3.49-1.96-6.11ZM545.39 45.62h1.62v-8.83c0-2.37.06-4.23.19-5.57.12-1.35.47-2.5 1.05-3.47.57-1 1.4-1.82 2.48-2.45 1.08-.63 2.28-.94 3.61-.94 1.87 0 3.55.7 5.06 2.1 1 .93 1.64 2.07 1.91 3.42s.4 3.26.4 5.73v10.01h5.38c2.08 0 3.67.49 4.76 1.48 1.09.99 1.64 2.25 1.64 3.79 0 1.97-.78 3.36-2.34 4.14-1.56.79-3.79 1.18-6.7 1.18h-2.75v27.02c0 2.3.08 4.06.24 5.3.16 1.24.59 2.24 1.29 3.01.7.77 1.84 1.16 3.42 1.16.86 0 2.03-.15 3.5-.46 1.47-.3 2.62-.46 3.44-.46 1.18 0 2.25.48 3.2 1.43.95.95 1.43 2.13 1.43 3.53 0 2.37-1.29 4.18-3.88 5.44-2.58 1.26-6.3 1.88-11.14 1.88-4.59 0-8.07-.77-10.44-2.31-2.37-1.54-3.92-3.68-4.66-6.41-.74-2.73-1.1-6.37-1.1-10.93V56.2h-1.94c-2.12 0-3.73-.5-4.84-1.51-1.11-1-1.67-2.28-1.67-3.82s.58-2.81 1.75-3.79c1.17-.99 2.86-1.48 5.09-1.48ZM624.62 77.81h-28.74c.04 3.34.71 6.28 2.02 8.83s3.05 4.47 5.22 5.76 4.57 1.94 7.19 1.94c1.76 0 3.36-.21 4.82-.62 1.45-.41 2.86-1.06 4.23-1.94 1.36-.88 2.62-1.82 3.77-2.83 1.15-1 2.64-2.37 4.47-4.09.75-.65 1.83-.97 3.23-.97 1.51 0 2.73.41 3.66 1.24.93.83 1.4 1.99 1.4 3.5 0 1.33-.52 2.88-1.56 4.66-1.04 1.78-2.61 3.48-4.71 5.11-2.1 1.63-4.74 2.99-7.91 4.06-3.17 1.08-6.83 1.62-10.95 1.62-9.44 0-16.78-2.69-22.01-8.07-5.24-5.38-7.86-12.68-7.86-21.91 0-4.34.65-8.37 1.94-12.08s3.18-6.9 5.65-9.55c2.48-2.66 5.53-4.69 9.15-6.11s7.64-2.13 12.06-2.13c5.74 0 10.67 1.21 14.77 3.63 4.11 2.42 7.19 5.55 9.23 9.39 2.05 3.84 3.07 7.75 3.07 11.73 0 3.7-1.06 6.09-3.18 7.19-2.12 1.1-5.1 1.64-8.94 1.64Zm-28.74-8.34h26.64c-.36-5.02-1.71-8.78-4.06-11.28-2.35-2.49-5.45-3.74-9.28-3.74s-6.67 1.26-9.02 3.79c-2.35 2.53-3.78 6.27-4.28 11.22Z" class="cls-1"/></g></svg>