<?xml version="1.0" encoding="utf-8"?>
<!-- Generator: Adobe Illustrator 27.5.0, SVG Export Plug-In . SVG Version: 6.00 Build 0)  -->
<svg version="1.1" id="Layer_1" xmlns="http://www.w3.org/2000/svg" xmlns:xlink="http://www.w3.org/1999/xlink" x="0px" y="0px"
	 viewBox="0 0 700 700" style="enable-background:new 0 0 700 700;" xml:space="preserve">
<style type="text/css">
	.st0{fill:#58727F;}
	.st1{fill:#E5E5E5;}
</style>
<path class="st0" d="M320.8,145.5h54.9v54.9h-54.9V145.5z M273.2,310.3h47.6v54.9h-47.6V310.3z M375.8,200.4h54.9v54.9h-54.9V200.4z
	 M485.6,200.4h54.9v54.9h-54.9V200.4z M430.7,137.6v7.9h18.8L430.7,137.6z M430.7,314.2l8.3-3.9h-8.3V314.2z"/>
<path class="st0" d="M485.6,255.3h-54.9l-1.1,52.7l27.5-12.8l29-13.6L485.6,255.3z M420.4,310.3h-44.7v22.9l49-22.9H420.4z
	 M485.6,200.4v-39.7l-36.1-15.2h-18.8v54.9H485.6z M580,200.4l-39.5-16.6v16.6H580z M430.7,145.5v-7.9l-54.9-23.1v31H430.7z
	 M320.8,255.3h54.9v54.9h-54.9V255.3z M595.5,206.9v30.3l34.1-15.9L595.5,206.9z M540.5,255.3v7.5l16-7.5L540.5,255.3z M273.2,200.4
	h54.9v55.4h-54.9V200.4z M273.2,90.5h47.6v54.9h-47.6V90.5z M273.2,145.4"/>
<path class="st0" d="M236.2,45.6h37v622h-37L236.2,45.6z"/>
<path class="st0" d="M243.6,412.3v-364l409.9,172.5L243.6,412.3z M265.8,75v309.6l348.6-162.9L265.8,75z"/>
<polygon class="st1" points="273.2,78.1 302.6,90.5 273.2,90.5 "/>
<polygon class="st1" points="320.8,98.1 375.7,121.2 375.8,145.5 320.8,145.4 "/>
<rect x="375.8" y="145.5" class="st1" width="54.9" height="54.9"/>
<rect x="430.7" y="200.4" class="st1" width="54.9" height="54.9"/>
<polygon class="st1" points="485.6,167.5 485.6,200.4 540.5,200.4 540.5,190.6 "/>
<polygon class="st1" points="563.8,200.4 595.5,213.7 595.5,230.5 542.5,255.3 540.5,255.3 540.5,200.4 "/>
<polygon class="st1" points="486.1,281.6 485.6,255.3 540.5,255.3 540.5,256.2 "/>
<polygon class="st1" points="375.7,255.3 430.7,255.3 429.6,308 424.7,310.3 375.7,310.2 "/>
<polygon class="st1" points="320.8,310.2 375.7,310.2 375.7,333.2 320.8,358.9 "/>
<polygon class="st1" points="273.2,255.8 320.8,255.3 320.8,310.2 273.2,310.3 "/>
<rect x="273.2" y="145.4" class="st1" width="47.6" height="55"/>
<polygon class="st1" points="328.1,200.4 375.8,200.4 375.7,255.3 328.1,255.8 "/>
<polygon class="st1" points="273.2,365.2 273.2,381.1 307.3,365.2 "/>
</svg>
