<?xml version="1.0" encoding="utf-8"?>
<!-- Generator: Adobe Illustrator 27.6.1, SVG Export Plug-In . SVG Version: 6.00 Build 0)  -->
<svg version="1.1"
	 id="svg56" xmlns:inkscape="http://www.inkscape.org/namespaces/inkscape" xmlns:svg="http://www.w3.org/2000/svg" xmlns:sodipodi="http://sodipodi.sourceforge.net/DTD/sodipodi-0.dtd"
	 xmlns="http://www.w3.org/2000/svg" xmlns:xlink="http://www.w3.org/1999/xlink" x="0px" y="0px" viewBox="0 0 700 700"
	 style="enable-background:new 0 0 700 700;" xml:space="preserve">
<style type="text/css">
	.st0{fill:#EA5E5E;}
	.st1{fill:#A3D168;stroke:#000000;stroke-width:27.6134;stroke-miterlimit:3;stroke-opacity:0.2;}
</style>
<sodipodi:namedview  bordercolor="#eeeeee" borderopacity="1" id="namedview58" inkscape:current-layer="svg56" inkscape:cx="467.7712" inkscape:cy="467.7712" inkscape:deskcolor="#505050" inkscape:document-units="pt" inkscape:pagecheckerboard="0" inkscape:pageopacity="0" inkscape:showpageshadow="0" inkscape:window-height="1014" inkscape:window-maximized="1" inkscape:window-width="1920" inkscape:window-x="0" inkscape:window-y="32" inkscape:zoom="0.90535714" pagecolor="#505050" showgrid="false">
	</sodipodi:namedview>
<path id="path52" class="st0" d="M497.2,250.1l63.5-100.3c4.6-7.3,3.2-16.9-3.3-22.6c-3.2-2.7-7.2-4.3-11.4-4.3H221v-4.1
	c0-9.7-7.8-17.5-17.5-17.5c-3.1,0-6.1,0.8-8.8,2.3c-5.4,3.1-8.8,8.9-8.8,15.2v420h-17.9c-6.3,0-12,3.3-15.2,8.8
	c-3.1,5.4-3.1,12.1,0,17.5c3.1,5.4,8.9,8.7,15.2,8.8h70.8c6.3,0,12-3.3,15.2-8.8c3.1-5.4,3.1-12.1,0-17.5c-3.1-5.4-8.9-8.8-15.2-8.8
	H221V377.2h325c9.7,0,17.5-7.8,17.5-17.5c0-3.3-0.9-6.6-2.7-9.4L497.2,250.1z M221,342.2V158h293.1l-52.5,82.7
	c-1.8,2.8-2.7,6.1-2.7,9.4c0,3.3,0.9,6.6,2.7,9.4l52.5,82.7L221,342.2z"/>
<path id="path54" class="st1" d="M221.6,250.2v-91.5h291.6l-2.8,4.3c-28.2,44.1-50.2,79.5-51,81.7c-1.4,4-1.1,8.3,0.6,12.2
	c1.1,2.5,39,62.8,52.1,83l1.2,1.9H221.6V250.2z"/>
</svg>
